# xmcd CD database file
#
# Track frame offsets:
#	150
#	9625
#	20232
#	42905
#	56890
#	69762
#	81870
#	92300
#	109297
#	131517
#	147627
#	159910
#	169840
#	180847
#	195409
#	204382
#
# Disc length: 2836 seconds
#
# Revision: 0
# Processed by: cddbd v1.5.1PL0 Copyright (c) Steve Scherf et al.
# Submitted via: CDex 1.51
#
DISCID=d10b1210
DTITLE=Lost Posse - Broken Compass
DYEAR=1996
DGENRE=Country
TTITLE0=I Can See Clearly Now
TTITLE1=Blue Ridge Mountain Blues
TTITLE2=St. James Infirmary
TTITLE3=Open Up the Gates
TTITLE4=Clinch Mountain Backstep
TTITLE5=Back to Old Kentucky
TTITLE6=Sick and Tired
TTITLE7=Banks of the Ohio
TTITLE8=Jerusalem Ridge
TTITLE9=Tennessee Stud
TTITLE10=Harrison Town
TTITLE11=Shady Grove
TTITLE12=If I Were a Carpenter
TTITLE13=Sail Away Ladies
TTITLE14=Lonesome
TTITLE15=Down in the Ark'n
EXTD=YEAR: 1996
EXTT0=
EXTT1=
EXTT2=
EXTT3=
EXTT4=
EXTT5=
EXTT6=
EXTT7=
EXTT8=
EXTT9=
EXTT10=
EXTT11=
EXTT12=
EXTT13=
EXTT14=
EXTT15=
PLAYORDER=
